<svg width="226" height="226" viewBox="0 0 226 226" fill="none" xmlns="http://www.w3.org/2000/svg">
<path d="M187 113C187 123.99 184.6 134.43 180.29 143.81C168.61 169.3 142.87 187 113 187C83.13 187 57.39 169.3 45.71 143.81C41.4 134.43 39 123.99 39 113C39 72.13 72.13 39 113 39C153.87 39 187 72.13 187 113Z" fill="#D5F3F8"/>
<path fill-rule="evenodd" clip-rule="evenodd" d="M113 187H123C123.552 187 124 186.552 124 186V136H113V187Z" fill="white"/>
<path fill-rule="evenodd" clip-rule="evenodd" d="M113 156H124V136H113V156Z" fill="#D2D5D9"/>
<path fill-rule="evenodd" clip-rule="evenodd" d="M140.348 82.4741C128.7 82.4741 119.255 91.9189 119.255 103.567V136.395H161.44V103.567C161.44 91.9189 151.996 82.4741 140.348 82.4741Z" fill="#D9684F"/>
<path fill-rule="evenodd" clip-rule="evenodd" d="M97.0527 136.395H140.348V82.4741H97.0527V136.395Z" fill="#D9684F"/>
<path fill-rule="evenodd" clip-rule="evenodd" d="M97.0527 82.4741C85.4033 82.4741 75.9609 91.9189 75.9609 103.567V136.395H118.146V103.567C118.146 91.9189 108.703 82.4741 97.0527 82.4741Z" fill="#DB393D"/>
<path fill-rule="evenodd" clip-rule="evenodd" d="M97.0527 85.8047C87.1864 85.8047 79.1873 93.805 79.1873 103.671V133.541H114.92V103.671C114.92 93.805 106.92 85.8047 97.0527 85.8047Z" fill="#A22F31"/>
<path fill-rule="evenodd" clip-rule="evenodd" d="M116.47 103.567H161.257V100.834H116.47V103.567Z" fill="#DB393D"/>
<path fill-rule="evenodd" clip-rule="evenodd" d="M123.062 72.9878V84.2109L138.204 78.5976L123.062 72.9878Z" fill="#0CB9B9"/>
<path fill-rule="evenodd" clip-rule="evenodd" d="M123.062 109.435H126.153V71.2144H123.062V109.435Z" fill="white"/>
<path fill-rule="evenodd" clip-rule="evenodd" d="M129.246 110.213C129.246 112.709 127.222 114.732 124.726 114.732C122.232 114.732 120.208 112.709 120.208 110.213C120.208 107.717 122.232 105.694 124.726 105.694C127.222 105.694 129.246 107.717 129.246 110.213Z" fill="white"/>
<path fill-rule="evenodd" clip-rule="evenodd" d="M126.875 110.22C126.875 111.408 125.913 112.369 124.726 112.369C123.54 112.369 122.579 111.408 122.579 110.22C122.579 109.034 123.54 108.071 124.726 108.071C125.913 108.071 126.875 109.034 126.875 110.22Z" fill="#B5B7B4"/>
<path fill-rule="evenodd" clip-rule="evenodd" d="M92.3404 125.636L39.341 110.439L83.8037 131.624L91.0924 143.093L92.3404 125.636Z" fill="#B5B7B4"/>
<path fill-rule="evenodd" clip-rule="evenodd" d="M67.9796 142.466L83.8037 131.624L39.341 110.439L67.9796 142.466Z" fill="white"/>
<path fill-rule="evenodd" clip-rule="evenodd" d="M79.1506 134.814L91.0925 143.092L83.8038 131.624L79.1506 134.814Z" fill="#CCCDC9"/>
<path fill-rule="evenodd" clip-rule="evenodd" d="M92.3404 125.636L102.125 118.508L39.341 110.439L92.3404 125.636Z" fill="white"/>
<path fill-rule="evenodd" clip-rule="evenodd" d="M139.256 130.633L183.989 117.807L146.462 135.689L140.309 145.366L139.256 130.633Z" fill="#B5B7B4"/>
<path fill-rule="evenodd" clip-rule="evenodd" d="M159.819 144.839L146.462 135.689L183.989 117.807L159.819 144.839Z" fill="white"/>
<path fill-rule="evenodd" clip-rule="evenodd" d="M150.391 138.38L140.309 145.366L146.462 135.689L150.391 138.38Z" fill="#CCCDC9"/>
<path fill-rule="evenodd" clip-rule="evenodd" d="M139.256 130.633L130.998 124.617L183.989 117.807L139.256 130.633Z" fill="white"/>
<path fill-rule="evenodd" clip-rule="evenodd" d="M105.598 61.5376L131.033 54.1737L109.706 64.4047L106.219 69.9191L105.598 61.5376Z" fill="#B5B7B4"/>
<path fill-rule="evenodd" clip-rule="evenodd" d="M117.32 69.5912L109.706 64.4047L131.033 54.1737L117.32 69.5912Z" fill="white"/>
<path fill-rule="evenodd" clip-rule="evenodd" d="M111.945 65.9297L106.219 69.9192L109.706 64.4049L111.945 65.9297Z" fill="#CCCDC9"/>
<path fill-rule="evenodd" clip-rule="evenodd" d="M105.598 61.5376L100.891 58.1276L131.033 54.1738L105.598 61.5376Z" fill="white"/>
</svg>
