<svg width="148" height="148" viewBox="0 0 148 148" fill="none" xmlns="http://www.w3.org/2000/svg">
<path d="M148 74C148 84.99 145.6 95.43 141.29 104.81C129.61 130.3 103.87 148 74 148C44.13 148 18.39 130.3 6.71 104.81C2.4 95.43 0 84.99 0 74C0 33.13 33.13 0 74 0C114.87 0 148 33.13 148 74Z" fill="#D5F3F8"/>
<path fill-rule="evenodd" clip-rule="evenodd" d="M74 148H84C84.5523 148 85 147.552 85 147V97H74V148Z" fill="white"/>
<path fill-rule="evenodd" clip-rule="evenodd" d="M74 117H85V97.0002H74V117Z" fill="#D2D5D9"/>
<path fill-rule="evenodd" clip-rule="evenodd" d="M101.348 43.4741C89.6998 43.4741 80.2551 52.9189 80.2551 64.5671V97.3947H122.44V64.5671C122.44 52.9189 112.996 43.4741 101.348 43.4741Z" fill="#D9684F"/>
<path fill-rule="evenodd" clip-rule="evenodd" d="M58.0527 97.3947H101.348V43.4741H58.0527V97.3947Z" fill="#D9684F"/>
<path fill-rule="evenodd" clip-rule="evenodd" d="M58.0527 43.4741C46.4033 43.4741 36.9609 52.9189 36.9609 64.5671V97.3947H79.1456V64.5671C79.1456 52.9189 69.7033 43.4741 58.0527 43.4741Z" fill="#DB393D"/>
<path fill-rule="evenodd" clip-rule="evenodd" d="M58.0527 46.8047C48.1864 46.8047 40.1873 54.805 40.1873 64.6712V94.5412H75.9205V64.6712C75.9205 54.805 67.9202 46.8047 58.0527 46.8047Z" fill="#A22F31"/>
<path fill-rule="evenodd" clip-rule="evenodd" d="M77.4703 64.5671H122.257V61.8345H77.4703V64.5671Z" fill="#DB393D"/>
<path fill-rule="evenodd" clip-rule="evenodd" d="M84.0616 33.9878V45.2109L99.2038 39.5976L84.0616 33.9878Z" fill="#0CB9B9"/>
<path fill-rule="evenodd" clip-rule="evenodd" d="M84.0616 70.4351H87.153V32.2144H84.0616V70.4351Z" fill="white"/>
<path fill-rule="evenodd" clip-rule="evenodd" d="M90.2457 71.2129C90.2457 73.7088 88.2222 75.7323 85.7263 75.7323C83.2316 75.7323 81.2082 73.7088 81.2082 71.2129C81.2082 68.7171 83.2316 66.6936 85.7263 66.6936C88.2222 66.6936 90.2457 68.7171 90.2457 71.2129Z" fill="white"/>
<path fill-rule="evenodd" clip-rule="evenodd" d="M87.8753 71.22C87.8753 72.4076 86.9127 73.369 85.7263 73.369C84.5399 73.369 83.5785 72.4076 83.5785 71.22C83.5785 70.0336 84.5399 69.071 85.7263 69.071C86.9127 69.071 87.8753 70.0336 87.8753 71.22Z" fill="#B5B7B4"/>
<path fill-rule="evenodd" clip-rule="evenodd" d="M53.3404 86.6356L0.340981 71.439L44.8037 92.6243L52.0924 104.093L53.3404 86.6356Z" fill="#B5B7B4"/>
<path fill-rule="evenodd" clip-rule="evenodd" d="M28.9796 103.466L44.8037 92.6243L0.340996 71.439L28.9796 103.466Z" fill="white"/>
<path fill-rule="evenodd" clip-rule="evenodd" d="M40.1506 95.814L52.0925 104.092L44.8038 92.6243L40.1506 95.814Z" fill="#CCCDC9"/>
<path fill-rule="evenodd" clip-rule="evenodd" d="M53.3404 86.6356L63.125 79.5079L0.340992 71.439L53.3404 86.6356Z" fill="white"/>
<path fill-rule="evenodd" clip-rule="evenodd" d="M100.256 91.6334L144.989 78.8071L107.462 96.6891L101.309 106.366L100.256 91.6334Z" fill="#B5B7B4"/>
<path fill-rule="evenodd" clip-rule="evenodd" d="M120.819 105.839L107.462 96.6891L144.989 78.8071L120.819 105.839Z" fill="white"/>
<path fill-rule="evenodd" clip-rule="evenodd" d="M111.391 99.3802L101.309 106.366L107.462 96.689L111.391 99.3802Z" fill="#CCCDC9"/>
<path fill-rule="evenodd" clip-rule="evenodd" d="M100.256 91.6334L91.998 85.6175L144.989 78.8071L100.256 91.6334Z" fill="white"/>
<path fill-rule="evenodd" clip-rule="evenodd" d="M66.5979 22.5376L92.033 15.1737L70.706 25.4047L67.2193 30.9191L66.5979 22.5376Z" fill="#B5B7B4"/>
<path fill-rule="evenodd" clip-rule="evenodd" d="M78.32 30.5912L70.706 25.4047L92.033 15.1737L78.32 30.5912Z" fill="white"/>
<path fill-rule="evenodd" clip-rule="evenodd" d="M72.9453 26.9297L67.2193 30.9192L70.706 25.4049L72.9453 26.9297Z" fill="#CCCDC9"/>
<path fill-rule="evenodd" clip-rule="evenodd" d="M66.5979 22.5376L61.8907 19.1276L92.033 15.1738L66.5979 22.5376Z" fill="white"/>
</svg>
